<?xml version="1.0" encoding="UTF-8"?>
<!DOCTYPE svg PUBLIC "-//W3C//DTD SVG 1.1//EN" "http://www.w3.org/Graphics/SVG/1.1/DTD/svg11.dtd">
<svg xmlns="http://www.w3.org/2000/svg" version="1.1" width="800px" height="455px" style="shape-rendering:geometricPrecision; text-rendering:geometricPrecision; image-rendering:optimizeQuality; fill-rule:evenodd; clip-rule:evenodd" xmlns:xlink="http://www.w3.org/1999/xlink">
<g><path style="opacity:0.973" fill="#000000" d="M 163.5,-0.5 C 166.5,-0.5 169.5,-0.5 172.5,-0.5C 174.151,0.970083 175.985,2.30342 178,3.5C 213.742,85.3149 276.575,125.982 366.5,125.5C 366.5,202.5 366.5,279.5 366.5,356.5C 358.917,356.624 353.417,353.291 350,346.5C 341.02,312.58 332.353,278.58 324,244.5C 321.541,235.516 315.708,232.016 306.5,234C 301.737,236.353 299.071,240.187 298.5,245.5C 311.55,279.935 324.883,314.268 338.5,348.5C 337.053,354.469 333.387,356.969 327.5,356C 273.979,305.115 243.812,242.615 237,168.5C 236.023,151.756 236.523,135.09 238.5,118.5C 200.205,92.6997 172.372,58.3664 155,15.5C 153.917,7.99526 156.75,2.66193 163.5,-0.5 Z"/></g>
<g><path style="opacity:0.974" fill="#30ea00" d="M 573.5,-0.5 C 576.5,-0.5 579.5,-0.5 582.5,-0.5C 587.68,2.15329 590.68,6.48662 591.5,12.5C 575.103,56.6459 547.269,91.6459 508,117.5C 515.604,211.389 485.77,290.889 418.5,356C 412.135,357.483 408.469,354.983 407.5,348.5C 420.33,315.505 433.164,282.505 446,249.5C 446.905,235.743 440.738,230.91 427.5,235C 423.639,238.254 421.472,242.421 421,247.5C 412.979,280.252 404.645,312.919 396,345.5C 393.025,352.978 387.525,356.644 379.5,356.5C 379.5,279.5 379.5,202.5 379.5,125.5C 468.744,125.995 531.244,85.6616 567,4.5C 568.965,2.44965 571.132,0.782988 573.5,-0.5 Z"/></g>
<g><path style="opacity:0.963" fill="#010101" d="M 308.5,11.5 C 339.993,14.1534 354.159,31.1534 351,62.5C 342.786,85.1982 326.619,95.0316 302.5,92C 279.069,84.3268 268.903,68.1602 272,43.5C 277.442,25.0469 289.609,14.3803 308.5,11.5 Z"/></g>
<g><path style="opacity:0.96" fill="#31ea03" d="M 430.5,11.5 C 453.225,11.7316 467.725,22.7316 474,44.5C 476.407,68.4229 466.241,84.2563 443.5,92C 417.26,95.0768 400.76,83.9101 394,58.5C 392.887,32.4535 405.053,16.7868 430.5,11.5 Z"/></g>
<g><path style="opacity:1" fill="#414142" d="M 300.5,21.5 C 305.93,21.161 311.264,21.661 316.5,23C 320.89,28.2723 320.223,32.939 314.5,37C 307.584,40.9123 300.584,41.2456 293.5,38C 290.651,35.4406 289.817,32.2739 291,28.5C 293.79,25.535 296.957,23.2016 300.5,21.5 Z"/></g>
<g><path style="opacity:1" fill="#84f268" d="M 428.5,22.5 C 436.376,22.1718 442.876,24.8385 448,30.5C 449.89,35.9956 448.057,39.4956 442.5,41C 433.32,43.0082 425.82,40.5082 420,33.5C 419.221,27.1065 422.054,23.4398 428.5,22.5 Z"/></g>
<g><path style="opacity:1" fill="#595a5c" d="M 278.5,49.5 C 292.407,55.4533 306.074,61.9533 319.5,69C 325.805,71.9171 332.138,72.0838 338.5,69.5C 338.833,69.8333 339.167,70.1667 339.5,70.5C 325.954,87.1115 309.954,89.9448 291.5,79C 282.118,71.4015 277.785,61.5682 278.5,49.5 Z"/></g>
<g><path style="opacity:1" fill="#aef79b" d="M 464.5,49.5 C 465.5,49.5 466.5,49.5 467.5,49.5C 465.907,74.5937 452.574,86.4271 427.5,85C 418.242,82.7296 410.909,77.7296 405.5,70C 413.315,72.3566 420.981,71.6899 428.5,68C 440.686,62.0742 452.686,55.9075 464.5,49.5 Z"/></g>
<g><path style="opacity:1" fill="#a2f68b" d="M 471.5,116.5 C 504.281,100.56 531.115,77.5604 552,47.5C 560.691,34.7873 568.358,21.454 575,7.5C 576.365,8.59285 576.699,9.92618 576,11.5C 557.362,53.1329 528.528,85.6329 489.5,109C 483.812,112.347 477.812,114.847 471.5,116.5 Z"/></g>
<g><path style="opacity:1" fill="#737577" d="M 293.5,122.5 C 293.5,123.167 293.167,123.5 292.5,123.5C 267.466,116.602 245.133,104.769 225.5,88C 201.565,66.7459 183.065,41.5792 170,12.5C 169.506,10.8659 169.34,9.19919 169.5,7.5C 170.675,7.28099 171.675,7.61432 172.5,8.5C 193.776,57.5934 228.443,93.76 276.5,117C 282.031,119.299 287.698,121.132 293.5,122.5 Z"/></g>
<g><path style="opacity:1" fill="#a9f694" d="M 471.5,116.5 C 468.63,118.794 465.297,120.128 461.5,120.5C 464.53,118.597 467.863,117.263 471.5,116.5 Z"/></g>
<g><path style="opacity:1" fill="#8af36e" d="M 461.5,120.5 C 459.989,122.441 457.989,122.941 455.5,122C 457.436,121.187 459.436,120.687 461.5,120.5 Z"/></g>
<g><path style="opacity:1" fill="#3f4041" d="M 293.5,122.5 C 297.19,123.508 300.857,124.674 304.5,126C 300.165,126.413 296.165,125.58 292.5,123.5C 293.167,123.5 293.5,123.167 293.5,122.5 Z"/></g>
<g><path style="opacity:0.924" fill="#30ea00" d="M 20.5,368.5 C 27.5127,368.169 34.1793,369.503 40.5,372.5C 41.8333,377.833 41.8333,383.167 40.5,388.5C 33.632,384.039 26.632,383.539 19.5,387C 25.342,390.179 31.342,393.179 37.5,396C 48.3355,406.337 48.0022,416.337 36.5,426C 25.0909,430.983 13.9242,430.483 3,424.5C 2.17053,419.136 2.33719,413.802 3.5,408.5C 10.4611,413.576 17.9611,414.909 26,412.5C 26.7203,410.888 26.5536,409.388 25.5,408C 19.884,406.242 14.5506,403.908 9.5,401C 0.228096,391.698 0.228096,382.365 9.5,373C 13.0531,370.879 16.7197,369.379 20.5,368.5 Z"/></g>
<g><path style="opacity:0.939" fill="#30ea00" d="M 82.5,368.5 C 107.006,368.172 118.84,380.172 118,404.5C 112.494,423.983 99.6604,432.15 79.5,429C 61.7413,423.339 54.2413,411.172 57,392.5C 60.5655,379.097 69.0655,371.097 82.5,368.5 Z M 86.5,384.5 C 95.0565,385.557 99.7232,390.39 100.5,399C 99.0658,411.384 92.3991,415.717 80.5,412C 73.503,404.865 72.6696,397.032 78,388.5C 80.7383,386.711 83.5716,385.378 86.5,384.5 Z"/></g>
<g><path style="opacity:0.934" fill="#30ea00" d="M 154.5,368.5 C 162.079,367.85 169.245,369.183 176,372.5C 176.191,378.083 176.691,383.583 177.5,389C 174.534,388.374 171.534,387.374 168.5,386C 149.616,384.292 143.782,392.125 151,409.5C 158.97,414.872 166.803,414.706 174.5,409C 175.5,408.333 176.5,408.333 177.5,409C 176.525,414.741 176.192,420.575 176.5,426.5C 159.852,433.255 145.685,429.922 134,416.5C 126.301,401.044 128.468,387.211 140.5,375C 144.877,371.975 149.544,369.808 154.5,368.5 Z"/></g>
<g><path style="opacity:0.939" fill="#30ea00" d="M 248.5,368.5 C 273.499,367.714 285.665,379.714 285,404.5C 279.33,424.469 266.164,432.636 245.5,429C 224.613,420.036 218.446,404.87 227,383.5C 232.438,375.875 239.605,370.875 248.5,368.5 Z M 253.5,384.5 C 262.283,385.618 266.95,390.618 267.5,399.5C 265.765,411.535 259.098,415.702 247.5,412C 240.923,405.432 239.756,397.932 244,389.5C 246.659,386.63 249.826,384.963 253.5,384.5 Z"/></g>
<g><path style="opacity:0.921" fill="#30ea00" d="M 315.5,368.5 C 322.513,368.169 329.179,369.503 335.5,372.5C 336.833,377.833 336.833,383.167 335.5,388.5C 329.642,384.978 323.309,383.811 316.5,385C 315.833,385.667 315.167,386.333 314.5,387C 321.595,390.382 328.595,394.048 335.5,398C 344.091,412.625 340.424,422.958 324.5,429C 315.087,430.622 306.254,429.122 298,424.5C 297.171,419.136 297.337,413.802 298.5,408.5C 305.461,413.576 312.961,414.909 321,412.5C 321.72,410.888 321.554,409.388 320.5,408C 314.884,406.242 309.551,403.908 304.5,401C 296.6,393.859 295.434,385.692 301,376.5C 305.134,372.354 309.968,369.687 315.5,368.5 Z"/></g>
<g><path style="opacity:0.927" fill="#000000" d="M 372.5,368.5 C 382.677,367.006 390.177,370.673 395,379.5C 396.936,389.129 393.436,395.962 384.5,400C 386.333,401.833 388.167,403.667 390,405.5C 391.455,402.088 393.288,398.921 395.5,396C 400.833,395.333 406.167,395.333 411.5,396C 407.5,402.333 403.5,408.667 399.5,415C 403.132,419.634 407.132,423.967 411.5,428C 405.167,428.667 398.833,428.667 392.5,428C 391.646,426.978 390.646,426.145 389.5,425.5C 379.019,430.988 368.686,430.821 358.5,425C 349.722,414.225 351.055,404.891 362.5,397C 353.172,383.165 356.505,373.665 372.5,368.5 Z M 374.5,381.5 C 378.198,380.68 380.531,382.013 381.5,385.5C 377.966,392.837 374.966,392.837 372.5,385.5C 372.752,383.927 373.418,382.594 374.5,381.5 Z M 371.5,406.5 C 374.631,409.129 377.631,411.962 380.5,415C 376.877,417.109 373.377,416.942 370,414.5C 369.109,411.502 369.609,408.836 371.5,406.5 Z"/></g>
<g><path style="opacity:0.92" fill="#30ea00" d="M 634.5,368.5 C 642.876,367.808 650.71,369.475 658,373.5C 658.83,379.196 658.663,384.863 657.5,390.5C 649.313,384.929 640.647,384.095 631.5,388C 626.309,393.69 625.142,400.19 628,407.5C 632.169,412.949 637.669,414.949 644.5,413.5C 644.5,407.833 644.5,402.167 644.5,396.5C 650.167,396.5 655.833,396.5 661.5,396.5C 661.666,405.173 661.5,413.84 661,422.5C 657.479,425.844 653.312,428.011 648.5,429C 620.31,432.141 607.144,419.641 609,391.5C 612.978,378.683 621.478,371.016 634.5,368.5 Z"/></g>
<g><path style="opacity:0.938" fill="#30ea00" d="M 698.5,368.5 C 720.297,367.636 732.63,377.969 735.5,399.5C 734.664,414.676 726.998,424.509 712.5,429C 689.629,431.95 676.296,422.116 672.5,399.5C 673.998,383.013 682.665,372.679 698.5,368.5 Z M 703.5,384.5 C 711.994,385.496 716.661,390.329 717.5,399C 716.056,411.388 709.389,415.721 697.5,412C 690.959,405.441 689.792,397.941 694,389.5C 696.659,386.63 699.826,384.963 703.5,384.5 Z"/></g>
<g><path style="opacity:0.924" fill="#30ea00" d="M 765.5,368.5 C 772.513,368.169 779.179,369.503 785.5,372.5C 786.833,377.833 786.833,383.167 785.5,388.5C 779.642,384.978 773.309,383.811 766.5,385C 765.833,385.667 765.167,386.333 764.5,387C 770.342,390.179 776.342,393.179 782.5,396C 789.681,402.41 791.514,410.244 788,419.5C 780.6,428.404 771.1,431.571 759.5,429C 755.345,428.282 751.512,426.782 748,424.5C 747.171,419.136 747.337,413.802 748.5,408.5C 755.461,413.576 762.961,414.909 771,412.5C 771.781,411.056 771.614,409.723 770.5,408.5C 761.985,406.329 754.818,401.996 749,395.5C 745.326,380.842 750.826,371.842 765.5,368.5 Z"/></g>
<g><path style="opacity:0.909" fill="#30ea00" d="M 191.5,369.5 C 197.5,369.5 203.5,369.5 209.5,369.5C 209.5,389.167 209.5,408.833 209.5,428.5C 203.5,428.5 197.5,428.5 191.5,428.5C 191.5,408.833 191.5,389.167 191.5,369.5 Z"/></g>
<g><path style="opacity:0.925" fill="#30ea00" d="M 439.5,369.5 C 446.5,369.5 453.5,369.5 460.5,369.5C 467.095,388.951 474.095,408.284 481.5,427.5C 475.202,428.496 468.868,428.83 462.5,428.5C 461.909,425.06 460.909,421.727 459.5,418.5C 453.202,417.504 446.868,417.17 440.5,417.5C 439.909,420.94 438.909,424.273 437.5,427.5C 431.537,428.496 425.537,428.829 419.5,428.5C 426.167,408.833 432.833,389.167 439.5,369.5 Z M 449.5,389.5 C 451.242,393.544 452.909,397.711 454.5,402C 451.5,402.667 448.5,402.667 445.5,402C 447.335,397.996 448.668,393.83 449.5,389.5 Z"/></g>
<g><path style="opacity:0.922" fill="#30ea00" d="M 497.5,369.5 C 504.422,369.188 511.256,369.521 518,370.5C 520.802,380.571 523.802,390.571 527,400.5C 529.665,390.505 532.331,380.505 535,370.5C 541.744,369.521 548.578,369.188 555.5,369.5C 557.565,389.121 560.232,408.621 563.5,428C 557.584,428.807 551.75,428.641 546,427.5C 544.94,416.839 543.94,406.172 543,395.5C 540,406.167 537,416.833 534,427.5C 528.928,428.471 523.762,428.805 518.5,428.5C 515.571,417.541 512.737,406.541 510,395.5C 508.569,406.478 507.402,417.478 506.5,428.5C 500.833,428.5 495.167,428.5 489.5,428.5C 492.085,408.822 494.751,389.156 497.5,369.5 Z"/></g>
<g><path style="opacity:0.907" fill="#30ea00" d="M 576.5,369.5 C 582.5,369.5 588.5,369.5 594.5,369.5C 594.5,389.167 594.5,408.833 594.5,428.5C 588.5,428.5 582.5,428.5 576.5,428.5C 576.5,408.833 576.5,389.167 576.5,369.5 Z"/></g>
</svg>
